<svg width="55" height="45" viewBox="0 0 55 45" fill="none" xmlns="http://www.w3.org/2000/svg">
<path d="M55 11.25V40.1786C55 42.8404 52.6904 45 49.8438 45H5.15625C2.30957 45 0 42.8404 0 40.1786V11.25C0 8.58817 2.30957 6.42857 5.15625 6.42857H14.6094L15.9307 3.12388C16.6826 1.24554 18.6055 0 20.7539 0H34.2354C36.3838 0 38.3066 1.24554 39.0586 3.12388L40.3906 6.42857H49.8438C52.6904 6.42857 55 8.58817 55 11.25ZM40.3906 25.7143C40.3906 19.0647 34.6113 13.6607 27.5 13.6607C20.3887 13.6607 14.6094 19.0647 14.6094 25.7143C14.6094 32.3638 20.3887 37.7679 27.5 37.7679C34.6113 37.7679 40.3906 32.3638 40.3906 25.7143ZM36.9531 25.7143C36.9531 30.5859 32.71 34.5536 27.5 34.5536C22.29 34.5536 18.0469 30.5859 18.0469 25.7143C18.0469 20.8426 22.29 16.875 27.5 16.875C32.71 16.875 36.9531 20.8426 36.9531 25.7143Z" fill="black"/>
</svg>
