<svg width="300" height="300" viewBox="0 0 300 300" fill="none" xmlns="http://www.w3.org/2000/svg">
<path d="M0 100H100V0H0V100ZM16.6667 16.6667H83.3333V83.3333H16.6667V16.6667ZM33.3333 33.3333H66.6667V66.6667H33.3333V33.3333ZM200 100H300V0H200V100ZM216.667 16.6667H283.333V83.3333H216.667V16.6667ZM233.333 33.3333H266.667V66.6667H233.333V33.3333ZM0 300H100V200H0V300ZM16.6667 216.667H83.3333V283.333H16.6667V216.667ZM33.3333 233.333H66.6667V266.667H33.3333V233.333ZM283.333 266.667H300V300H266.667V250H283.333V266.667ZM283.333 216.667H300V233.333H283.333V216.667ZM283.333 200V216.667H266.667V200H283.333ZM116.667 233.333H133.333V300H116.667V233.333ZM50 116.667V150H16.6667V133.333H0V116.667H50ZM116.667 66.6667H133.333V83.3333H116.667V66.6667ZM166.667 16.6667V50H150V0H183.333V16.6667H166.667ZM116.667 16.6667H133.333V33.3333H116.667V16.6667ZM283.333 150H300V183.333H266.667V166.667H283.333V150ZM266.667 116.667V133.333H233.333V166.667H200V150H216.667V116.667H266.667ZM150 183.333H133.333V166.667H116.667V150H150V183.333ZM250 216.667H266.667V233.333H250V216.667ZM283.333 133.333V150H266.667V133.333H283.333ZM133.333 183.333V200H116.667V183.333H133.333ZM233.333 266.667H250V300H216.667V266.667H233.333ZM183.333 266.667H200V283.333H183.333V300H150V283.333H166.667V266.667H183.333ZM183.333 250V233.333H216.667V250H183.333ZM183.333 166.667H200V216.667H183.333V233.333H166.667V250H150V216.667H133.333V200H183.333V183.333H166.667V166.667H183.333ZM33.3333 166.667V183.333H16.6667V166.667H33.3333ZM233.333 233.333H216.667V216.667H233.333V233.333ZM250 200H216.667V183.333H250V200ZM83.3333 116.667H100V133.333H83.3333V150H100V183.333H83.3333V166.667H66.6667V183.333H50V150H66.6667V116.667H83.3333ZM133.333 116.667V83.3333H183.333V133.333H150V116.667H166.667V100H150V116.667H133.333ZM133.333 50H150V66.6667H133.333V50ZM116.667 116.667H133.333V133.333H116.667V116.667ZM166.667 66.6667V50H183.333V66.6667H166.667Z" fill="black"/>
</svg>
